<svg width="186" height="34" viewBox="0 0 186 34" fill="none" xmlns="http://www.w3.org/2000/svg">
<g clip-path="url(#clip0_2208_6024)">
<path d="M75.2102 31.0296C74.3968 31.0296 73.8694 30.9944 73.363 30.9944L74.8049 23.1009C75.379 23.1009 76.2013 23.0657 76.911 23.0657C79.3331 23.0657 80.1892 24.2817 80.1892 25.9305C80.1892 28.5145 78.6349 31.0296 75.2102 31.0296ZM76.7761 23.7905C76.3254 23.7905 75.819 23.8137 75.5146 23.8257L74.3432 30.2105C74.6717 30.2586 75.0026 30.2859 75.3343 30.2921C78.1617 30.2921 79.2883 28.0705 79.2883 26.0354C79.2883 24.749 78.7135 23.7898 76.7761 23.7898" fill="#009FE3"/>
<path d="M81.7097 30.9951H80.8867L81.9578 25.1839H82.78L81.7097 30.9951ZM82.7007 23.9087C82.6285 23.9109 82.5566 23.8979 82.4893 23.8705C82.422 23.8431 82.3608 23.8019 82.3092 23.7493C82.2577 23.6967 82.2169 23.6339 82.1894 23.5645C82.1618 23.4952 82.1481 23.4208 82.1489 23.3458C82.1471 23.2632 82.1612 23.1811 82.1904 23.1043C82.2197 23.0275 82.2634 22.9575 82.319 22.8985C82.3747 22.8395 82.4411 22.7926 82.5145 22.7607C82.5878 22.7287 82.6666 22.7123 82.7461 22.7124C82.8177 22.7112 82.8887 22.7249 82.9551 22.7527C83.0214 22.7806 83.0816 22.822 83.1322 22.8745C83.1828 22.9271 83.2227 22.9896 83.2496 23.0585C83.2764 23.1273 83.2896 23.2011 83.2884 23.2754C83.2906 23.357 83.2771 23.4383 83.2487 23.5145C83.2204 23.5907 83.1777 23.6603 83.1232 23.7192C83.0687 23.7782 83.0035 23.8253 82.9313 23.8578C82.8591 23.8903 82.7814 23.9076 82.7027 23.9087" fill="#009FE3"/>
<path d="M84.6157 28.3632C84.5743 28.6144 84.5517 28.8685 84.548 29.1233C84.548 30.1169 84.8869 30.3745 85.8319 30.3745C86.3595 30.3716 86.881 30.2562 87.3639 30.0353L87.4201 30.739C86.8186 30.9888 86.1753 31.112 85.5275 31.1014C84.2999 31.1014 83.6803 30.575 83.6803 29.2422C83.6803 27.0557 84.8069 25.079 86.7104 25.079C87.8255 25.079 88.2871 25.675 88.2871 26.3654C88.2871 27.6046 87.0141 28.2598 84.6151 28.3654M86.6087 25.7574C85.6597 25.7574 85.0089 26.611 84.7391 27.675C86.6318 27.5934 87.4317 27.207 87.4317 26.4702C87.4317 26.0023 87.1049 25.7567 86.6094 25.7567" fill="#009FE3"/>
<path d="M95.8129 23.908C95.4701 23.7959 95.1134 23.7368 94.754 23.7328C93.5603 23.7328 93.0078 24.4696 93.0078 25.136C93.0078 26.668 95.396 26.7032 95.396 28.5624C95.396 30.0128 94.1792 31.1 92.4445 31.1C92.037 31.1096 91.6306 31.0543 91.2393 30.936L91.4087 30.0592C91.7655 30.2159 92.148 30.2993 92.5353 30.3048C93.7853 30.3048 94.4951 29.6496 94.4951 28.7024C94.4951 27.2521 92.1401 27.2408 92.1401 25.3464C92.1401 24.0832 93.1088 22.996 94.8659 22.996C95.2366 22.9878 95.6071 23.0232 95.9701 23.1016L95.8129 23.908Z" fill="#009FE3"/>
<path d="M98.5387 31.1C98.2683 31.1399 97.9927 31.1144 97.7334 31.0255C97.4742 30.9365 97.2382 30.7865 97.044 30.5872C96.8498 30.3879 96.7026 30.1447 96.6139 29.8766C96.5253 29.6085 96.4975 29.3227 96.5328 29.0416C96.5328 26.7616 97.896 25.0776 99.7324 25.0776C100.006 25.0432 100.284 25.0735 100.545 25.1662C100.805 25.2589 101.043 25.4115 101.239 25.6128C101.435 25.814 101.585 26.0586 101.677 26.3283C101.769 26.5981 101.801 26.8859 101.771 27.1704C101.771 29.568 100.195 31.1 98.5387 31.1ZM99.609 25.8137C98.2912 25.8137 97.4012 27.2985 97.4012 28.8777C97.4012 29.8368 97.7727 30.3512 98.6851 30.3512C99.8375 30.3512 100.881 29.1 100.881 27.2549C100.881 26.3309 100.475 25.8165 99.6084 25.8165" fill="#009FE3"/>
<path d="M107.223 23.2303C106.951 23.1529 106.671 23.1136 106.39 23.1135C105.508 23.1135 105.016 23.6061 104.813 24.7856L104.745 25.1832H106.367L106.231 25.8728H104.62L103.618 31.3224C103.269 33.24 102.424 34 101.083 34C100.758 34.0008 100.433 33.9654 100.115 33.8944L100.329 33.1344C100.603 33.2205 100.888 33.2639 101.174 33.2632C102.03 33.2632 102.525 32.784 102.785 31.3456L103.798 25.8728H102.593L102.729 25.1832H103.922L103.99 24.7856C104.271 23.1719 105.094 22.4 106.491 22.4C106.81 22.4001 107.128 22.4355 107.44 22.5055L107.223 23.2303Z" fill="#009FE3"/>
<path d="M109.78 25.8742H108.18L107.594 29.0782C107.414 30.0486 107.539 30.3175 108.137 30.3175C108.406 30.3214 108.675 30.29 108.937 30.2239L108.903 30.9726C108.569 31.0467 108.23 31.0859 107.889 31.0894C106.773 31.0894 106.492 30.5265 106.729 29.2415L107.348 25.8735H106.144L106.279 25.1839H107.484L107.833 23.2543L108.714 23.0432L108.307 25.1832H109.918L109.78 25.8742Z" fill="#009FE3"/>
<path d="M115.99 30.9944H115.021L114.536 27.3809C114.492 27.029 114.446 26.6441 114.435 26.2697H114.424C113.678 27.8481 112.926 29.4153 112.183 30.9937H111.211L110.591 25.1817H111.472L111.788 28.6433C111.833 29.1577 111.878 29.6722 111.878 29.9881H111.89C112.636 28.4097 113.41 26.7954 114.176 25.1817H115.1L115.551 28.63C115.619 29.1929 115.664 29.694 115.675 29.998H115.687C116.452 28.314 117.241 26.63 118.019 24.946L118.784 25.2275L115.99 30.9944Z" fill="#009FE3"/>
<path d="M122.937 30.9944H122.092C122.194 30.4681 122.431 29.6264 122.79 28.4336L122.768 28.4217C122.385 29.3224 121.506 31.1112 120.056 31.1112C119.268 31.1112 118.829 30.5736 118.829 29.3569C118.829 27.2401 119.876 25.1001 122.32 25.1001C122.88 25.1022 123.438 25.157 123.988 25.2641C123.345 28.7257 123.175 29.6609 122.94 30.9944M122.174 25.7905C120.372 25.7905 119.685 27.6729 119.685 29.2049C119.685 30.0353 119.933 30.3625 120.316 30.3625C121.477 30.3625 122.682 27.8713 122.952 26.4097L123.041 25.9066C122.758 25.8313 122.467 25.7928 122.174 25.7905Z" fill="#009FE3"/>
<path d="M128.524 25.9312C127.409 25.6272 126.26 28.1768 126.001 29.6609L125.753 30.9937H124.93L125.494 27.9678C125.663 27.0438 125.833 26.1085 125.989 25.1846H126.811C126.659 25.9671 126.452 26.7371 126.192 27.4885H126.214C126.868 26.0149 127.566 24.8806 128.682 25.0797L128.524 25.9312Z" fill="#009FE3"/>
<path d="M129.684 28.3632C129.643 28.6144 129.62 28.8685 129.617 29.1233C129.617 30.1169 129.955 30.3745 130.9 30.3745C131.428 30.3717 131.95 30.2563 132.433 30.0353L132.489 30.739C131.888 30.9888 131.244 31.112 130.597 31.1014C129.369 31.1014 128.75 30.575 128.75 29.2422C128.75 27.0557 129.876 25.079 131.78 25.079C132.895 25.079 133.356 25.675 133.356 26.3654C133.356 27.6046 132.083 28.2598 129.684 28.3654M131.678 25.7574C130.729 25.7574 130.078 26.611 129.808 27.675C131.7 27.5934 132.5 27.207 132.5 26.4702C132.5 26.0023 132.173 25.7574 131.678 25.7574Z" fill="#009FE3"/>
<path d="M135.016 28.3632C134.974 28.6144 134.952 28.8685 134.948 29.1233C134.948 30.1169 135.287 30.3745 136.232 30.3745C136.759 30.3716 137.281 30.2562 137.764 30.0353L137.82 30.739C137.219 30.9888 136.575 31.112 135.927 31.1014C134.7 31.1014 134.08 30.575 134.08 29.2422C134.08 27.0557 135.207 25.079 137.11 25.079C138.225 25.079 138.687 25.675 138.687 26.3654C138.687 27.6046 137.414 28.2598 135.015 28.3654M137.009 25.7574C136.06 25.7574 135.409 26.611 135.139 27.675C137.032 27.5934 137.832 27.207 137.832 26.4702C137.832 26.0023 137.505 25.7567 137.009 25.7567" fill="#009FE3"/>
<path d="M143.799 30.9944H142.965L143.663 27.2521C143.844 26.2584 143.663 25.8137 143.112 25.8137C141.963 25.8137 140.746 28.2809 140.487 29.7545L140.262 30.9937H139.44L140.002 27.9678C140.172 27.0438 140.341 26.1085 140.498 25.1846H141.332C141.162 26.0249 140.94 26.853 140.668 27.6638L140.69 27.6757C141.22 26.3661 142.155 25.0677 143.36 25.0677C144.385 25.0677 144.746 25.8165 144.52 27.0557L143.799 30.9944Z" fill="#009FE3"/>
<path d="M149.25 25.8742H147.654L147.068 29.0782C146.888 30.0486 147.012 30.3175 147.611 30.3175C147.88 30.3215 148.149 30.29 148.411 30.2239L148.377 30.9726C148.043 31.0467 147.704 31.0859 147.363 31.0894C146.247 31.0894 145.966 30.5265 146.203 29.2415L146.822 25.8735H145.618L145.753 25.1839H146.958L147.307 23.2543L148.188 23.0432L147.781 25.1832H149.392L149.25 25.8742Z" fill="#009FE3"/>
<path d="M155.458 30.9944H154.489L154.004 27.3809C153.96 27.029 153.914 26.6441 153.903 26.2697H153.893C153.148 27.8481 152.396 29.4153 151.652 30.9937H150.683L150.064 25.1817H150.945L151.261 28.6433C151.306 29.1577 151.351 29.6722 151.351 29.9881H151.363C152.108 28.4097 152.883 26.7954 153.649 25.1817H154.572L155.023 28.63C155.091 29.1929 155.136 29.694 155.147 29.998H155.158C155.924 28.314 156.713 26.63 157.49 24.946L158.255 25.2275L155.458 30.9944Z" fill="#009FE3"/>
<path d="M159.265 30.9951H158.442L159.513 25.1832H160.335L159.265 30.9951ZM160.256 23.9087C160.183 23.9109 160.112 23.8979 160.044 23.8705C159.977 23.8431 159.916 23.8019 159.864 23.7493C159.813 23.6967 159.772 23.6339 159.744 23.5645C159.717 23.4952 159.703 23.4208 159.704 23.3458C159.702 23.2632 159.716 23.1811 159.745 23.1043C159.775 23.0275 159.818 22.9575 159.874 22.8985C159.93 22.8395 159.996 22.7926 160.069 22.7607C160.143 22.7287 160.222 22.7123 160.301 22.7124C160.373 22.7112 160.444 22.7249 160.51 22.7527C160.576 22.7806 160.637 22.822 160.687 22.8745C160.738 22.9271 160.778 22.9896 160.805 23.0585C160.831 23.1273 160.845 23.2011 160.843 23.2754C160.845 23.357 160.832 23.4383 160.804 23.5144C160.775 23.5906 160.732 23.6601 160.678 23.719C160.624 23.7779 160.558 23.825 160.486 23.8576C160.414 23.8902 160.336 23.9075 160.258 23.9087" fill="#009FE3"/>
<path d="M165.414 26.0487C165.072 25.8829 164.699 25.799 164.322 25.8031C162.812 25.8031 162.103 27.5807 162.103 28.9959C162.103 29.6391 162.283 30.3175 163.331 30.3175C163.784 30.3114 164.232 30.2122 164.648 30.0254L164.682 30.7502C164.185 30.9612 163.654 31.0722 163.116 31.0775C161.674 31.0775 161.201 30.259 161.201 29.195C161.201 26.9847 162.384 25.1022 164.387 25.1022C164.801 25.098 165.213 25.1612 165.608 25.2894L165.414 26.0487Z" fill="#009FE3"/>
<path d="M168.209 27.7904L169.966 30.9944H168.949L167.349 27.8488L166.763 30.9944H165.941L167.507 22.4577H168.329L167.375 27.682L170.067 24.9108L170.652 25.4372L168.209 27.7904Z" fill="#009FE3"/>
<path d="M171.98 30.9944H171.157L172.723 22.4577H173.546L171.98 30.9944Z" fill="#009FE3"/>
<path d="M174.888 28.3632C174.846 28.6144 174.824 28.8685 174.82 29.1233C174.82 30.1169 175.159 30.3745 176.104 30.3745C176.631 30.3716 177.153 30.2562 177.636 30.0353L177.692 30.739C177.09 30.9888 176.447 31.112 175.799 31.1014C174.572 31.1014 173.952 30.575 173.952 29.2422C173.952 27.0557 175.079 25.079 176.982 25.079C178.097 25.079 178.559 25.675 178.559 26.3654C178.559 27.6046 177.286 28.2598 174.887 28.3654M176.881 25.7574C175.932 25.7574 175.281 26.611 175.01 27.675C176.903 27.5934 177.703 27.207 177.703 26.4702C177.703 26.0023 177.375 25.7574 176.881 25.7574Z" fill="#009FE3"/>
<path d="M182.908 25.9312C181.793 25.6272 180.644 28.1768 180.385 29.6609L180.137 30.9937H179.315L179.878 27.9678C180.048 27.0438 180.217 26.1085 180.374 25.1846H181.196C181.043 25.9671 180.836 26.7371 180.576 27.4885H180.599C181.252 26.0149 181.95 24.8806 183.066 25.0797L182.908 25.9312Z" fill="#009FE3"/>
<path d="M182.784 31.088C182.629 31.0871 182.481 31.0227 182.371 30.9089C182.261 30.7951 182.199 30.641 182.199 30.48C182.197 30.3946 182.212 30.3097 182.243 30.2303C182.273 30.1509 182.318 30.0786 182.376 30.0177C182.434 29.9567 182.503 29.9082 182.578 29.8751C182.654 29.842 182.736 29.8249 182.818 29.8249C182.895 29.8243 182.972 29.8396 183.043 29.87C183.114 29.9004 183.179 29.9451 183.233 30.0017C183.288 30.0583 183.331 30.1255 183.36 30.1995C183.39 30.2736 183.404 30.3529 183.404 30.4329C183.406 30.5186 183.392 30.6039 183.362 30.6837C183.332 30.7635 183.286 30.8362 183.228 30.8974C183.17 30.9585 183.101 31.007 183.025 31.0397C182.949 31.0725 182.867 31.0889 182.784 31.088Z" fill="#009FE3"/>
<path d="M4.46516 0H3.32159L0 15.4529H4.81291L6.48658 5.49883H6.65266L4.46516 0Z" fill="#009FE3"/>
<path d="M16.9896 0L12.8735 10.1518H12.8193L8.82188 0H4.4679L10.3261 15.4522H14.9356L18.6829 5.4939H18.7548L20.6847 15.4522H25.7254L22.3984 0H16.9896Z" fill="#009FE3"/>
<mask id="mask0_2208_6024" style="mask-type:luminance" maskUnits="userSpaceOnUse" x="24" y="1" width="68" height="17">
<path d="M27.6145 17.4437L24.0272 1.7621H91.0256V17.4437H27.6145Z" fill="white"/>
</mask>
<g mask="url(#mask0_2208_6024)">
<path d="M47.2186 15.4465V3.87958H51.9638V12.4051H59.1872V15.4465H47.2186Z" fill="#009FE3"/>
<path d="M67.8823 6.82533V15.4543H63.1372V6.82533H59.2218V3.85213H71.7679V6.82533H67.8823Z" fill="#009FE3"/>
<path d="M38.8862 3.85143V10.0399C38.8862 11.5937 38.0145 12.4213 35.991 12.422C33.9676 12.4227 33.0958 11.5937 33.0958 10.0399V3.85143H28.3629V11.3474C28.3629 13.9307 30.684 15.6007 35.991 15.6584C41.2988 15.6007 43.6198 13.9307 43.6198 11.3474V3.85143H38.8862Z" fill="#009FE3"/>
<path d="M82.3421 3.87958H77.277L71.5083 15.4817H76.2534L77.0872 13.7224H82.5278L83.3616 15.4817H88.1067L82.3421 3.87958ZM79.8082 11.2686H78.1365L79.8082 7.56564L81.4805 11.2686H79.8082Z" fill="#009FE3"/>
</g>
<path d="M99.5784 0.0323715H98.3162L94.9899 15.5183H99.8163L101.491 5.54317H101.667L99.5784 0.0323715Z" fill="#009FE3"/>
<path d="M112.019 0.0302601L107.893 10.2053H107.838L103.832 0.0302601H99.4686L105.34 15.5176H109.963L113.719 5.53472H113.791L115.725 15.5162H120.774L117.44 0.0302601H112.019Z" fill="#009FE3"/>
<mask id="mask1_2208_6024" style="mask-type:luminance" maskUnits="userSpaceOnUse" x="119" y="1" width="67" height="17">
<path d="M122.589 17.4437L119.002 1.7621H186V17.4437H122.589Z" fill="white"/>
</mask>
<g mask="url(#mask1_2208_6024)">
<path d="M123.792 15.5197V3.91758H136.291V6.42985H128.542V8.47766H133.939V11.0005H128.542V13.0251H136.291V15.5211L123.792 15.5197Z" fill="#009FE3"/>
<path d="M162.996 3.90491H158.248V15.5197H162.996V3.90491Z" fill="#009FE3"/>
<path d="M146.186 3.76065C143.847 3.76065 141.596 3.8071 139.991 3.87325V15.4078C141.596 15.4733 144.358 15.5197 146.697 15.5197C151.953 15.5197 155.252 13.7604 155.42 9.64019C155.252 5.52346 151.443 3.76065 146.186 3.76065M146.279 12.3706C145.601 12.3706 145.018 12.3256 144.738 12.3066V7.16945C145.018 7.15045 145.601 7.10541 146.279 7.10541C148.608 7.10541 150.311 7.79787 150.375 9.73872C150.307 11.6803 148.608 12.3727 146.279 12.3727" fill="#009FE3"/>
<path d="M183.348 9.53253C183.348 5.52135 179.913 3.94643 174.864 3.91055H174.365C169.315 3.94643 165.88 5.51853 165.88 9.53253C165.88 9.61416 165.891 9.68875 165.894 9.76827C165.896 9.84779 165.88 9.92238 165.88 10.0033C165.88 14.0103 170.223 15.5957 174.365 15.6253H174.864C179.913 15.5894 183.348 14.0173 183.348 10.0033C183.348 9.92238 183.338 9.84779 183.335 9.76827C183.331 9.68875 183.348 9.61416 183.348 9.53253ZM178.294 9.87101C178.294 11.7049 177.039 12.3917 174.614 12.3917C172.19 12.3917 170.935 11.7049 170.935 9.87101C170.935 9.83583 170.939 9.80064 170.94 9.76827C170.942 9.7359 170.935 9.6979 170.935 9.66553C170.935 7.83094 172.189 6.86263 174.614 6.86263C177.04 6.86263 178.294 7.83165 178.294 9.66553C178.294 9.70071 178.29 9.7359 178.288 9.76827C178.287 9.80064 178.294 9.83864 178.294 9.87101Z" fill="#009FE3"/>
</g>
</g>
<defs>
<clipPath id="clip0_2208_6024">
<rect width="186" height="34" fill="white"/>
</clipPath>
</defs>
</svg>
